<svg xmlns="http://www.w3.org/2000/svg" width="169.908" height="64.498" viewBox="0 0 169.908 64.498">
  <g id="logo_new" transform="translate(-510.487 -280.583)">
    <path id="Caminho_1" data-name="Caminho 1" d="M551.584,293.588a.5.5,0,0,0,.211-.7,47.9,47.9,0,0,0-6.953-11.729,1.5,1.5,0,0,0-2.669.983c0,14.82-5.478,24.442-14.749,31.4-.07,0-.07.07-.07.14A83.538,83.538,0,0,0,531,332.428a.18.18,0,0,0,.351-.07,42.225,42.225,0,0,1,20.228-38.77Zm2.95,10.465h0a36.407,36.407,0,0,0-20.86,30.482h-.421a40.459,40.459,0,0,1,18.753-39.191.538.538,0,0,1,.843.281,48.725,48.725,0,0,1,1.967,7.8.427.427,0,0,1-.281.632ZM525.527,314.8h0c.07-.07.211,0,.281.141a84.036,84.036,0,0,0,3.442,17.418c.07.14-.141.281-.281.211a52.4,52.4,0,0,0-16.786-7.515c-2.388-.492-2.037-2.95-.281-3.442,4.144-1.756,10.395-4.635,13.626-6.813Zm28.867,1.826h0a.585.585,0,0,1,.773.632,57.254,57.254,0,0,1-1.124,6.04.633.633,0,0,1-.421.421,23.244,23.244,0,0,0-2.95.843,21.678,21.678,0,0,0-13.064,13.415c-.351-.07-.211-.07-.562-.14a27.16,27.16,0,0,1,17.348-21.211Zm-1.967,9.06h0a.589.589,0,0,1,.7.773,49.161,49.161,0,0,1-10.676,18.121,1.52,1.52,0,0,1-2.458-.281c-.492-.913-1.124-1.826-1.686-2.669h0a20.459,20.459,0,0,1,12.923-15.452,8.566,8.566,0,0,1,1.194-.492Zm2.88-19.244h0c.141,1.615.281,3.3.281,4.987,0,.913,0,1.826-.07,2.739,0,.211-.211.421-.421.562-.421.14-.843.281-1.194.421a28.728,28.728,0,0,0-18.191,21,.633.633,0,0,1-.351-.07,34.668,34.668,0,0,1,19.174-30.061A.515.515,0,0,1,555.306,306.441Z" transform="translate(0 0)" fill="#f56e28" fill-rule="evenodd"/>
    <g id="Agrupar_1" data-name="Agrupar 1" transform="translate(563.454 304.615)">
      <path id="Caminho_2" data-name="Caminho 2" d="M677.838,330.814a3.783,3.783,0,0,1,3.863-3.933,3.629,3.629,0,0,1,2.248.773l-5.97,4.284a7,7,0,0,1-.14-1.124Zm-33.432,3.933a3.824,3.824,0,0,1-3.863-3.933,3.8,3.8,0,1,1,7.585,0,3.635,3.635,0,0,1-3.723,3.933Zm4.074,4.565h3.582a.48.48,0,0,0,.492-.492V322.737a.48.48,0,0,0-.492-.492H648.48a.48.48,0,0,0-.492.492v.983a6.265,6.265,0,0,0-4-1.475,8.421,8.421,0,0,0-8.077,8.569,8.328,8.328,0,0,0,8.077,8.569c1.475,0,3.3-.562,4-1.545v.983a.48.48,0,0,0,.492.492Zm-20.719-6.953c1.054.141,1.475.632,1.475,1.264a1.112,1.112,0,0,1-1.264,1.124,2.2,2.2,0,0,1-1.475-.492.527.527,0,0,0-.632,0l-3.09,2.248a.386.386,0,0,0-.211.351,1,1,0,0,0,.141.421,6.982,6.982,0,0,0,5.2,2.037c3.512,0,6.321-2.248,6.321-5.619s-2.318-4.916-5.338-5.338c-1.334-.14-1.756-.492-1.756-1.054,0-.492.351-.843.983-.843a2.221,2.221,0,0,1,1.194.421.527.527,0,0,0,.632,0l2.529-1.826a.386.386,0,0,0,.211-.351.516.516,0,0,0-.141-.421,5.568,5.568,0,0,0-4.565-2.107c-2.458,0-5.408,2.107-5.408,4.987.14,2.809,2.247,4.776,5.2,5.2ZM620.1,322.245h-3.582a.48.48,0,0,0-.492.492V338.82a.48.48,0,0,0,.492.492H620.1a.48.48,0,0,0,.492-.492V322.737c.07-.281-.211-.492-.492-.492Zm-1.756-7.445a2.739,2.739,0,1,1-2.739,2.739,2.743,2.743,0,0,1,2.739-2.739Zm-23.81,7.375a6.6,6.6,0,0,0-3.231.913.514.514,0,0,1-.773-.421v-7.3a.524.524,0,0,0-.843-.421l-3.582,2.6a.5.5,0,0,0-.211.421v20.93a.48.48,0,0,0,.492.492h3.582a.48.48,0,0,0,.492-.492v-1.054a5.62,5.62,0,0,0,4,1.545,8.624,8.624,0,0,0,.07-17.208Zm-.421,12.572a3.673,3.673,0,0,1-3.723-3.933,3.713,3.713,0,0,1,3.723-3.933,3.934,3.934,0,0,1,0,7.866Zm77.048-3.933c0-4.706-3.09-8.569-7.585-8.569-1.475,0-3.442.421-4.284,1.475v-.983a.48.48,0,0,0-.492-.492h-3.582a.48.48,0,0,0-.492.492V338.82a.48.48,0,0,0,.492.492H658.8a.48.48,0,0,0,.492-.492v-8.007a3.755,3.755,0,0,1,3.933-3.933c1.9,0,3.442,1.334,3.442,3.933v8.007a.48.48,0,0,0,.492.492h3.512a.48.48,0,0,0,.492-.492v-8.007Zm31.606-4.846v-3.231a.48.48,0,0,0-.492-.492h-3.371v-4.074a.711.711,0,0,0-.281-.492.55.55,0,0,0-.562.07l-3.582,2.6a.5.5,0,0,0-.211.421v1.475h-1.967a.48.48,0,0,0-.492.492v3.231a.48.48,0,0,0,.492.492h1.967v5.759c0,4.074,3.231,6.953,7.866,7.164a.536.536,0,0,0,.351-.14c.141-.07.141-.211.141-.351v-3.512a.48.48,0,0,0-.492-.492c-1.9-.141-3.3-.983-3.3-2.669V326.6h3.371c.351-.141.562-.351.562-.632ZM613.5,322.245h-.632a5.09,5.09,0,0,0-3.652,1.475v-.7a.53.53,0,0,0-.281-.492.55.55,0,0,0-.562.07l-3.582,2.6a.5.5,0,0,0-.211.421v13.2a.48.48,0,0,0,.492.492h3.582a.48.48,0,0,0,.492-.492v-8.007c0-2.6,1.545-3.933,3.3-3.933a3.419,3.419,0,0,1,.843.07.525.525,0,0,0,.632-.492v-3.652a.426.426,0,0,0-.421-.562Zm71.78,11.238a4.184,4.184,0,0,1-3.231,1.264,2.817,2.817,0,0,1-1.334-.211l8.85-6.321a.566.566,0,0,0,.211-.632,8.682,8.682,0,0,0-8.077-5.408,8.543,8.543,0,0,0-8.5,8.569,8.728,8.728,0,0,0,8.92,8.569,8.981,8.981,0,0,0,6.883-2.95.753.753,0,0,0,.141-.421.386.386,0,0,0-.211-.351l-2.88-2.177A.63.63,0,0,0,685.283,333.483Z" transform="translate(-585.9 -314.8)" fill="#1e2d69" fill-rule="evenodd"/>
      <path id="Caminho_3" data-name="Caminho 3" d="M588.669,361.9h-2.318a.332.332,0,0,1-.351-.351v-5.268a.376.376,0,0,1,.351-.351.332.332,0,0,1,.351.351v4.987h2.037c.14,0,.351.141.351.281a.445.445,0,0,1-.421.351Zm113.781,0h-2.177c-.281,0-.492-.07-.492-.421v-5.057A.4.4,0,0,1,700.2,356h2.248a.351.351,0,1,1,0,.7h-1.967v1.967h1.826a.376.376,0,0,1,.351.351.332.332,0,0,1-.351.351h-1.826v1.967h2.037c.141,0,.351.141.351.281a.474.474,0,0,1-.421.281Zm-1.756-6.462h0l-.141.07a.224.224,0,0,1-.211-.211c0-.07.07-.141.141-.281l.632-.562c.07,0,.14-.07.211-.07a.258.258,0,0,1,.211.07l.632.562a.365.365,0,0,1,.14.281.186.186,0,0,1-.211.211c-.07,0-.14,0-.14-.07l-.632-.492-.632.492Zm-6.04,2.6c0-1.264.562-2.107,1.9-2.107.773,0,1.475.351,1.475.7a.3.3,0,0,1-.281.281c-.141,0-.141-.07-.281-.141a1.721,1.721,0,0,0-.843-.281c-.913,0-1.264.562-1.264,1.545v1.756c0,.913.281,1.545,1.264,1.545a1.226,1.226,0,0,0,.843-.281c.14-.07.211-.14.281-.14a.3.3,0,0,1,.281.281c0,.421-.7.7-1.475.7-1.264,0-1.9-.843-1.9-2.107v-1.756Zm-5.408,1.756v-1.756a1.863,1.863,0,0,1,1.9-2.107c1.4,0,1.9.983,1.9,2.107v1.756a1.867,1.867,0,0,1-1.9,2.107c-1.264.07-1.9-.913-1.9-2.107Zm.632-1.756h0v1.756c0,.843.421,1.475,1.264,1.475s1.264-.632,1.264-1.475v-1.756c0-.913-.351-1.475-1.264-1.475s-1.264.632-1.264,1.475Zm-4,2.739,1.4-4.636a.467.467,0,0,1,.351-.281.332.332,0,0,1,.351.351v.141l-1.615,5.127q-.105.421-.421.421c-.211,0-.351-.211-.421-.421l-1.615-5.127v-.141a.332.332,0,0,1,.351-.351.358.358,0,0,1,.351.281l1.264,4.636Zm-6.953,1.124h-2.177c-.281,0-.492-.07-.492-.421v-5.057a.4.4,0,0,1,.421-.421h2.248a.351.351,0,0,1,0,.7h-1.967v1.967h1.826a.376.376,0,0,1,.351.351.332.332,0,0,1-.351.351h-1.826v1.967h2.037c.14,0,.351.141.351.281a.474.474,0,0,1-.421.281Zm-.983-7.585h0c.14-.14.14-.211.281-.211a.3.3,0,0,1,.281.281c0,.07,0,.07-.07.141l-.7.7a.365.365,0,0,1-.281.141.3.3,0,0,1-.281-.281c0-.07,0-.07.07-.141l.7-.632Zm-5.478,2.318h-1.124a.332.332,0,0,1-.351-.351.376.376,0,0,1,.351-.351h2.95a.351.351,0,0,1,0,.7h-1.194v4.987a.376.376,0,0,1-.351.351.332.332,0,0,1-.351-.351v-4.987Zm-5.619,5.057a.467.467,0,0,1-.351.281.332.332,0,0,1-.351-.351v-.14l1.615-5.127q.105-.421.421-.421c.281,0,.351.211.421.421l1.615,5.127v.14a.332.332,0,0,1-.351.351.358.358,0,0,1-.351-.281l-.351-1.124h-2.107l-.211,1.124Zm.562-1.756h1.686l-.843-2.809-.843,2.809Zm-9.833-.14v-1.756a1.863,1.863,0,0,1,1.9-2.107c1.4,0,1.9.983,1.9,2.107v1.756a1.867,1.867,0,0,1-1.9,2.107c-1.194.07-1.9-.913-1.9-2.107Zm.7-1.756h0v1.756c0,.843.421,1.475,1.264,1.475s1.264-.632,1.264-1.475v-1.756c0-.913-.351-1.475-1.264-1.475s-1.264.632-1.264,1.475Zm-4.565,3.863h-.913a.453.453,0,0,1-.421-.421v-5.057a.453.453,0,0,1,.421-.421h.913a1.961,1.961,0,0,1,2.248,2.107v1.545c.07,1.194-.492,2.248-2.248,2.248Zm1.615-3.793h0a1.331,1.331,0,0,0-1.475-1.475H653v4.565h.843a1.35,1.35,0,0,0,1.475-1.545V358.1Zm-5.689,3.652-2.388-4.425v4.284a.351.351,0,0,1-.7,0v-5.338a.332.332,0,0,1,.351-.351.386.386,0,0,1,.351.211l2.388,4.425v-4.284a.351.351,0,1,1,.7,0v5.338a.332.332,0,0,1-.351.351.386.386,0,0,1-.351-.211Zm-6.883.211A1.772,1.772,0,0,1,640.924,360v-3.722a.332.332,0,0,1,.351-.351.376.376,0,0,1,.351.351V360c0,.773.351,1.334,1.194,1.334A1.184,1.184,0,0,0,644.014,360v-3.722a.351.351,0,1,1,.7,0V360a2.009,2.009,0,0,1-1.967,1.967Zm-3.793-.351a.376.376,0,0,1-.351.351.332.332,0,0,1-.351-.351v-4.074l-1.335,2.88a.4.4,0,0,1-.7,0l-1.334-2.88v4.074a.351.351,0,1,1-.7,0v-5.338a.332.332,0,0,1,.351-.351.386.386,0,0,1,.351.211l1.615,3.512,1.615-3.512a.386.386,0,0,1,.351-.211.332.332,0,0,1,.351.351v5.338Zm-13.626-1.826v-1.756a1.863,1.863,0,0,1,1.9-2.107c1.4,0,1.9.983,1.9,2.107v1.756a1.867,1.867,0,0,1-1.9,2.107c-1.264.07-1.9-.913-1.9-2.107Zm.7-1.756h0v1.756c0,.843.421,1.475,1.264,1.475s1.264-.632,1.264-1.475v-1.756c0-.913-.351-1.475-1.264-1.475s-1.264.632-1.264,1.475Zm-9.412,1.756v-1.756a1.863,1.863,0,0,1,1.9-2.107c1.4,0,1.9.983,1.9,2.107v1.756a1.867,1.867,0,0,1-1.9,2.107c-1.264.07-1.9-.913-1.9-2.107Zm.632-1.756h0v1.756c0,.843.421,1.475,1.264,1.475s1.264-.632,1.264-1.475v-1.756c0-.913-.351-1.475-1.264-1.475s-1.264.632-1.264,1.475Zm-4.5,3.863h-.913a.453.453,0,0,1-.421-.421v-5.057a.453.453,0,0,1,.421-.421h.913a1.961,1.961,0,0,1,2.247,2.107v1.545a2.029,2.029,0,0,1-2.247,2.248Zm1.615-3.793h0a1.331,1.331,0,0,0-1.475-1.475h-.843v4.565h.843a1.35,1.35,0,0,0,1.475-1.545V358.1Zm-5.759,3.652-2.388-4.425v4.284a.351.351,0,1,1-.7,0v-5.338a.332.332,0,0,1,.351-.351.386.386,0,0,1,.351.211l2.388,4.425v-4.284a.351.351,0,1,1,.7,0v5.338a.332.332,0,0,1-.351.351.386.386,0,0,1-.351-.211Zm-8.218-.07a.467.467,0,0,1-.351.281.332.332,0,0,1-.351-.351v-.14l1.615-5.127q.105-.421.421-.421c.281,0,.351.211.421.421l1.615,5.127v.14a.332.332,0,0,1-.351.351.358.358,0,0,1-.351-.281l-.351-1.124h-2.107l-.211,1.124Zm.562-1.756h1.686l-.843-2.809-.843,2.809Zm-3.933.843,1.4-4.636a.467.467,0,0,1,.351-.281.332.332,0,0,1,.351.351v.141l-1.615,5.127q-.105.421-.421.421c-.211,0-.351-.211-.421-.421l-1.615-5.127v-.141a.332.332,0,0,1,.351-.351.358.358,0,0,1,.351.281l1.264,4.636ZM593.3,361.9h-2.177c-.281,0-.492-.07-.492-.421v-5.057a.4.4,0,0,1,.421-.421H593.3a.351.351,0,1,1,0,.7h-1.967v1.967h1.826a.376.376,0,0,1,.351.351.332.332,0,0,1-.351.351h-1.826v1.967h2.037c.14,0,.351.141.351.281C593.585,361.756,593.445,361.9,593.3,361.9Z" transform="translate(-585.93 -326.498)" fill="#1e2d69" fill-rule="evenodd"/>
    </g>
  </g>
</svg>
